<svg width="35" height="46" viewBox="0 0 35 46" fill="none" xmlns="http://www.w3.org/2000/svg">
<path d="M12.3115 13.0407C13.5954 13.0407 14.8506 12.6599 15.9181 11.9466C16.9857 11.2333 17.8178 10.2194 18.3091 9.03319C18.8004 7.84697 18.929 6.54169 18.6785 5.28241C18.428 4.02314 17.8097 2.86641 16.9019 1.95853C15.994 1.05064 14.8372 0.432356 13.578 0.181869C12.3187 -0.0686168 11.0134 0.0599414 9.8272 0.551288C8.64098 1.04263 7.62711 1.8747 6.91379 2.94226C6.20046 4.00983 5.81973 5.26495 5.81973 6.5489C5.82185 8.26997 6.50648 9.91994 7.72346 11.1369C8.94044 12.3539 10.5904 13.0385 12.3115 13.0407ZM12.3115 3.26294C12.9614 3.26294 13.5967 3.45566 14.1371 3.81672C14.6774 4.17779 15.0986 4.69099 15.3473 5.29142C15.596 5.89184 15.6611 6.55254 15.5343 7.18995C15.4075 7.82737 15.0946 8.41287 14.635 8.87241C14.1755 9.33196 13.59 9.64492 12.9525 9.77171C12.3151 9.8985 11.6544 9.83343 11.054 9.58472C10.4536 9.33601 9.94038 8.91485 9.57932 8.37447C9.21825 7.8341 9.02554 7.1988 9.02554 6.5489C9.02681 5.6778 9.37341 4.84274 9.98937 4.22678C10.6053 3.61082 11.4404 3.26421 12.3115 3.26294ZM2.91687 25.4632C3.34198 25.4632 3.74969 25.2943 4.05029 24.9937C4.35089 24.6931 4.51977 24.2854 4.51977 23.8603V22.8825C4.52189 21.3077 5.14843 19.7979 6.262 18.6844C7.37558 17.5708 8.8853 16.9442 10.4601 16.9421H14.1628C15.7377 16.9442 17.2474 17.5708 18.361 18.6844C19.4746 19.7979 20.1011 21.3077 20.1032 22.8825V23.8603C20.1032 24.2854 20.2721 24.6931 20.5727 24.9937C20.8733 25.2943 21.281 25.4632 21.7061 25.4632C22.1312 25.4632 22.5389 25.2943 22.8395 24.9937C23.1401 24.6931 23.309 24.2854 23.309 23.8603V22.8825C23.3061 20.4577 22.3415 18.133 20.6269 16.4185C18.9123 14.7039 16.5877 13.7393 14.1628 13.7363H10.4601C8.03533 13.7393 5.71069 14.7039 3.99609 16.4185C2.28149 18.133 1.31693 20.4577 1.31396 22.8825V23.8603C1.31396 24.2854 1.48284 24.6931 1.78344 24.9937C2.08404 25.2943 2.49175 25.4632 2.91687 25.4632ZM2.02405 37.1916H21.4753C21.9004 37.1916 22.3081 37.0227 22.6087 36.7221C22.9093 36.4215 23.0782 36.0138 23.0782 35.5887C23.0782 35.1636 22.9093 34.7559 22.6087 34.4553C22.3081 34.1547 21.9004 33.9858 21.4753 33.9858H2.02405C1.59893 33.9858 1.19123 34.1547 0.890623 34.4553C0.59002 34.7559 0.421143 35.1636 0.421143 35.5887C0.421143 36.0138 0.59002 36.4215 0.890623 36.7221C1.19123 37.0227 1.59893 37.1916 2.02405 37.1916ZM32.4792 42.4267H2.02405C1.59893 42.4267 1.19123 42.5956 0.890623 42.8962C0.59002 43.1968 0.421143 43.6045 0.421143 44.0296C0.421143 44.4547 0.59002 44.8624 0.890623 45.163C1.19123 45.4636 1.59893 45.6325 2.02405 45.6325H32.4792C32.9044 45.6325 33.3121 45.4636 33.6127 45.163C33.9133 44.8624 34.0821 44.4547 34.0821 44.0296C34.0821 43.6045 33.9133 43.1968 33.6127 42.8962C33.3121 42.5956 32.9044 42.4267 32.4792 42.4267Z" fill="#9377FF"/>
</svg>
