<svg width="89" height="90" viewBox="0 0 89 90" fill="none" xmlns="http://www.w3.org/2000/svg">
<path d="M16.6878 18.8845H1.85474V15.1757H14.8334V2.19702H18.5422V17.0301C18.5422 18.0539 17.7118 18.8845 16.6878 18.8845Z" fill="#6B45FE"/>
<path d="M57.4794 89.3429H9.27071C4.15374 89.3368 0.00620604 85.1893 0.00012207 80.0723V17.0305C0.00012207 16.5389 0.195678 16.067 0.543334 15.7193L15.3764 0.88623C15.7241 0.538574 16.196 0.343018 16.6876 0.343018H57.4794C62.5964 0.349102 66.7439 4.49663 66.75 9.61361V24.4474H63.0419V9.61361C63.0419 6.54172 60.5513 4.05111 57.4794 4.05111H17.4556L3.70822 17.7978V80.0723C3.70822 83.1442 6.19882 85.6348 9.27071 85.6348H57.4794C60.5513 85.6348 63.0419 83.1442 63.0419 80.0723H66.75C66.7439 85.1893 62.5964 89.3368 57.4794 89.3429Z" fill="#6B45FE"/>
<path d="M46.3544 70.8011C33.0416 70.8011 22.25 60.0095 22.25 46.6974C22.25 33.3846 33.0416 22.593 46.3544 22.593C59.6665 22.593 70.458 33.3846 70.458 46.6974C70.4431 60.0034 59.6604 70.7861 46.3544 70.8011ZM46.3544 26.3011C35.0903 26.3011 25.9581 35.4332 25.9581 46.6974C25.9581 57.9616 35.0901 67.093 46.3544 67.093C57.6186 67.093 66.7499 57.9616 66.7499 46.6974C66.7364 35.4386 57.613 26.3147 46.3544 26.3011Z" fill="#6B45FE"/>
<path d="M59.8778 62.8423L62.5002 60.22L69.9171 67.6369L67.2947 70.2592L59.8778 62.8423Z" fill="#6B45FE"/>
<path d="M83.4064 89.3426C82.6715 89.3443 81.9436 89.2003 81.2647 88.9189C80.5858 88.6376 79.9694 88.2244 79.4511 87.7034L63.5853 71.8397C62.8615 71.1152 62.8615 69.9418 63.5853 69.2173L68.8749 63.9277C69.2226 63.5801 69.6945 63.3845 70.1861 63.3845C70.6777 63.3845 71.1496 63.5801 71.4973 63.9277L87.361 79.7935C88.143 80.5759 88.6754 81.5725 88.8911 82.6574C89.1068 83.7423 88.9961 84.8668 88.5728 85.8888C88.1496 86.9107 87.4329 87.7843 86.5133 88.3991C85.5937 89.0138 84.5126 89.3421 83.4064 89.3426ZM67.5182 70.5285L82.0728 85.0817C82.3031 85.3317 82.5967 85.5149 82.9226 85.6117C83.2484 85.7086 83.5944 85.7156 83.9239 85.632C84.2534 85.5483 84.5542 85.3772 84.7944 85.1367C85.0346 84.8962 85.2054 84.5952 85.2886 84.2656C85.3718 83.9359 85.3643 83.5899 85.2669 83.2642C85.1695 82.9384 84.9858 82.6451 84.7353 82.4152L70.1819 67.8599L67.5182 70.5285Z" fill="#6B45FE"/>
<path d="M59.3331 17.0301H55.625V13.322C55.625 12.2982 54.7946 11.4676 53.7706 11.4676H50.0625V7.75952H53.7706C56.8432 7.75952 59.3331 10.2494 59.3331 13.322V17.0301Z" fill="#6B45FE"/>
<path d="M42.6456 7.75952H46.3544V11.4676H42.6456V7.75952Z" fill="#6B45FE"/>
<path d="M41.2479 50.5978C40.8286 50.5978 40.4886 50.9377 40.4886 51.357V52.8755C40.4886 53.2948 40.8286 53.6347 41.2479 53.6347C41.6672 53.6347 42.0071 53.2948 42.0071 52.8755V51.357C42.0071 50.9377 41.6672 50.5978 41.2479 50.5978ZM48.8403 53.6347C49.2596 53.6347 49.5995 53.2948 49.5995 52.8755V51.357C49.5995 50.9377 49.2596 50.5978 48.8403 50.5978C48.421 50.5978 48.081 50.9377 48.081 51.357V52.8755C48.081 53.2948 48.421 53.6347 48.8403 53.6347ZM45.8539 40.7277H54.1549C54.5742 40.7277 54.9142 40.3878 54.9142 39.9685C54.9142 39.5492 54.5742 39.2092 54.1549 39.2092H45.8539C45.4346 39.2092 45.0947 39.5492 45.0947 39.9685C45.0947 40.3878 45.4346 40.7277 45.8539 40.7277Z" fill="white"/>
<path d="M41.2479 50.5978C40.8286 50.5978 40.4886 50.9377 40.4886 51.357V52.8755C40.4886 53.2948 40.8286 53.6347 41.2479 53.6347C41.6672 53.6347 42.0071 53.2948 42.0071 52.8755V51.357C42.0071 50.9377 41.6672 50.5978 41.2479 50.5978ZM48.8403 53.6347C49.2596 53.6347 49.5995 53.2948 49.5995 52.8755V51.357C49.5995 50.9377 49.2596 50.5978 48.8403 50.5978C48.421 50.5978 48.081 50.9377 48.081 51.357V52.8755C48.081 53.2948 48.421 53.6347 48.8403 53.6347ZM45.8539 40.7277H54.1549C54.5742 40.7277 54.9142 40.3878 54.9142 39.9685C54.9142 39.5492 54.5742 39.2092 54.1549 39.2092H45.8539C45.4346 39.2092 45.0947 39.5492 45.0947 39.9685C45.0947 40.3878 45.4346 40.7277 45.8539 40.7277Z" fill="#6B45FE"/>
<path d="M58.0017 44.2709V38.6526C58.0017 36.8385 56.5258 35.3625 54.7117 35.3625H45.2972C43.483 35.3625 42.0071 36.8385 42.0071 38.6526V44.524H40.9948C38.2197 44.524 35.8923 46.4763 35.3129 49.0794H35.174V44.3934C36.0577 44.08 36.6925 43.2361 36.6925 42.2463C36.6925 40.9904 35.6707 39.9686 34.4148 39.9686C33.1588 39.9686 32.137 40.9904 32.137 42.2463C32.137 43.2361 32.7718 44.08 33.6555 44.3934V49.1929C32.7456 49.4915 32.0864 50.3486 32.0864 51.3571V54.3941C32.0864 55.65 33.1082 56.6718 34.3641 56.6718H35.3019C35.8622 59.3002 38.2017 61.2778 40.9948 61.2778H49.0933C51.8864 61.2778 54.226 59.3002 54.7862 56.6718H55.724C56.9799 56.6718 58.0017 55.65 58.0017 54.3941V51.3571C58.0017 50.1012 56.9799 49.0794 55.724 49.0794H54.7749C54.657 48.5492 54.4654 48.038 54.2056 47.561H54.7117C56.5258 47.561 58.0017 46.0851 58.0017 44.2709ZM43.5256 38.6526C43.5256 37.6757 44.3203 36.881 45.2972 36.881H54.7117C55.6885 36.881 56.4832 37.6757 56.4832 38.6526V44.2709C56.4832 45.2478 55.6885 46.0425 54.7117 46.0425H45.8033C45.6854 46.0425 45.5692 46.0699 45.4638 46.1226L43.5256 47.0917V38.6526ZM34.4148 41.4871C34.8334 41.4871 35.174 41.8277 35.174 42.2463C35.174 42.6649 34.8334 43.0055 34.4148 43.0055C33.9961 43.0055 33.6555 42.6649 33.6555 42.2463C33.6555 41.8277 33.9961 41.4871 34.4148 41.4871ZM33.6049 54.3941V51.3571C33.6049 50.9385 33.9455 50.5979 34.3641 50.5979H35.174V55.1533H34.3641C33.9455 55.1533 33.6049 54.8127 33.6049 54.3941ZM56.4832 51.3571V54.3941C56.4832 54.8127 56.1426 55.1533 55.724 55.1533H54.9142V50.5979H55.724C56.1426 50.5979 56.4832 50.9385 56.4832 51.3571ZM53.3957 50.3448V55.457C53.3957 57.8293 51.4656 59.7594 49.0933 59.7594H40.9948C38.6225 59.7594 36.6925 57.8293 36.6925 55.457V50.3448C36.6925 47.9725 38.6225 46.0425 40.9948 46.0425H42.0071V48.3202C42.0071 48.8836 42.6015 49.2515 43.1059 48.9993L45.9825 47.561H52.3723C53.0331 48.338 53.3958 49.3248 53.3957 50.3448Z" fill="white"/>
<path d="M58.0017 44.2709V38.6526C58.0017 36.8385 56.5258 35.3625 54.7117 35.3625H45.2972C43.483 35.3625 42.0071 36.8385 42.0071 38.6526V44.524H40.9948C38.2197 44.524 35.8923 46.4763 35.3129 49.0794H35.174V44.3934C36.0577 44.08 36.6925 43.2361 36.6925 42.2463C36.6925 40.9904 35.6707 39.9686 34.4148 39.9686C33.1588 39.9686 32.137 40.9904 32.137 42.2463C32.137 43.2361 32.7718 44.08 33.6555 44.3934V49.1929C32.7456 49.4915 32.0864 50.3486 32.0864 51.3571V54.3941C32.0864 55.65 33.1082 56.6718 34.3641 56.6718H35.3019C35.8622 59.3002 38.2017 61.2778 40.9948 61.2778H49.0933C51.8864 61.2778 54.226 59.3002 54.7862 56.6718H55.724C56.9799 56.6718 58.0017 55.65 58.0017 54.3941V51.3571C58.0017 50.1012 56.9799 49.0794 55.724 49.0794H54.7749C54.657 48.5492 54.4654 48.038 54.2056 47.561H54.7117C56.5258 47.561 58.0017 46.0851 58.0017 44.2709ZM43.5256 38.6526C43.5256 37.6757 44.3203 36.881 45.2972 36.881H54.7117C55.6885 36.881 56.4832 37.6757 56.4832 38.6526V44.2709C56.4832 45.2478 55.6885 46.0425 54.7117 46.0425H45.8033C45.6854 46.0425 45.5692 46.0699 45.4638 46.1226L43.5256 47.0917V38.6526ZM34.4148 41.4871C34.8334 41.4871 35.174 41.8277 35.174 42.2463C35.174 42.6649 34.8334 43.0055 34.4148 43.0055C33.9961 43.0055 33.6555 42.6649 33.6555 42.2463C33.6555 41.8277 33.9961 41.4871 34.4148 41.4871ZM33.6049 54.3941V51.3571C33.6049 50.9385 33.9455 50.5979 34.3641 50.5979H35.174V55.1533H34.3641C33.9455 55.1533 33.6049 54.8127 33.6049 54.3941ZM56.4832 51.3571V54.3941C56.4832 54.8127 56.1426 55.1533 55.724 55.1533H54.9142V50.5979H55.724C56.1426 50.5979 56.4832 50.9385 56.4832 51.3571ZM53.3957 50.3448V55.457C53.3957 57.8293 51.4656 59.7594 49.0933 59.7594H40.9948C38.6225 59.7594 36.6925 57.8293 36.6925 55.457V50.3448C36.6925 47.9725 38.6225 46.0425 40.9948 46.0425H42.0071V48.3202C42.0071 48.8836 42.6015 49.2515 43.1059 48.9993L45.9825 47.561H52.3723C53.0331 48.338 53.3958 49.3248 53.3957 50.3448Z" fill="#6B45FE"/>
<path d="M45.8539 43.7648H54.1549C54.5742 43.7648 54.9142 43.4249 54.9142 43.0056C54.9142 42.5863 54.5742 42.2463 54.1549 42.2463H45.8539C45.4346 42.2463 45.0947 42.5863 45.0947 43.0056C45.0947 43.4249 45.4346 43.7648 45.8539 43.7648ZM42.7664 55.9126C42.7664 56.3319 43.1063 56.6718 43.5256 56.6718H46.5625C46.9818 56.6718 47.3218 56.3319 47.3218 55.9126C47.3218 55.4933 46.9818 55.1534 46.5625 55.1534H43.5256C43.1063 55.1534 42.7664 55.4933 42.7664 55.9126Z" fill="white"/>
<path d="M45.8539 43.7648H54.1549C54.5742 43.7648 54.9142 43.4249 54.9142 43.0056C54.9142 42.5863 54.5742 42.2463 54.1549 42.2463H45.8539C45.4346 42.2463 45.0947 42.5863 45.0947 43.0056C45.0947 43.4249 45.4346 43.7648 45.8539 43.7648ZM42.7664 55.9126C42.7664 56.3319 43.1063 56.6718 43.5256 56.6718H46.5625C46.9818 56.6718 47.3218 56.3319 47.3218 55.9126C47.3218 55.4933 46.9818 55.1534 46.5625 55.1534H43.5256C43.1063 55.1534 42.7664 55.4933 42.7664 55.9126Z" fill="#6B45FE"/>
</svg>
