<svg width="89" height="90" viewBox="0 0 89 90" fill="none" xmlns="http://www.w3.org/2000/svg">
<path d="M72.3123 89.3427H16.6874C13.6155 89.3427 11.1249 86.8528 11.1249 83.7802V70.8015H14.833V83.7802C14.833 84.804 15.6633 85.6346 16.6874 85.6346H72.3123C73.3361 85.6346 74.1667 84.8042 74.1667 83.7802V67.0927H77.8747V83.7802C77.8747 86.8528 75.3841 89.3427 72.3123 89.3427ZM77.8747 33.7178H74.1667V5.90533C74.1667 4.88149 73.3363 4.05163 72.3123 4.05163H24.8715L14.2898 14.6325L11.6681 12.0112L22.7931 0.886229C23.1407 0.538574 23.6127 0.343018 24.1043 0.343018H72.3123C75.3841 0.343018 77.8747 2.83362 77.8747 5.90551V33.7178Z" fill="#6B45FE"/>
<path d="M14.833 33.7178H11.1249V13.3222C11.1249 12.2984 11.9553 11.4678 12.9793 11.4678H22.2499V2.19727H25.9579V13.3222C25.9579 14.3461 25.1283 15.1766 24.1042 15.1766H14.833V33.7178Z" fill="#6B45FE"/>
<path d="M51.5719 72.2327L73.7673 50.0378L76.3896 52.6595L54.1943 74.8551L51.5719 72.2327Z" fill="#6B45FE"/>
<path d="M56.7989 79.3155C56.5553 79.3155 56.3142 79.2675 56.0892 79.1743C55.8642 79.0811 55.6598 78.9445 55.4877 78.7722L47.6519 70.9385C46.9281 70.214 46.9281 69.0407 47.6519 68.3162L73.7681 42.2025C74.4919 41.4787 75.6653 41.4787 76.3898 42.2025L84.2235 50.0343C84.9475 50.7582 84.9475 51.9322 84.2235 52.656L58.1094 78.7736C57.7617 79.1213 57.2898 79.3155 56.7987 79.3155H56.7989ZM51.5868 69.6273L56.7989 74.8394L80.2853 51.3469L75.0786 46.1408L51.5868 69.6273Z" fill="#6B45FE"/>
<path d="M46.3544 81.9262C46.0725 81.9262 45.7943 81.8619 45.541 81.7382C45.2876 81.6145 45.0658 81.4347 44.8924 81.2125C44.719 80.9902 44.5985 80.7314 44.5402 80.4556C44.4818 80.1798 44.4871 79.8943 44.5556 79.6209L47.1665 69.1763L50.7632 70.076L48.9095 77.5221L56.3556 75.6684L57.2546 79.2651L46.8046 81.8706C46.6572 81.9071 46.5058 81.9255 46.3544 81.9262ZM84.2236 52.6579L81.602 50.0342L84.2122 47.4233C84.5631 47.083 84.8429 46.6764 85.0352 46.227C85.2275 45.7776 85.3284 45.2945 85.3322 44.8057C85.3361 44.3169 85.2426 43.8323 85.0573 43.38C84.872 42.9277 84.5986 42.5167 84.253 42.1711C83.9074 41.8254 83.4965 41.5519 83.0442 41.3666C82.5919 41.1813 82.1073 41.0877 81.6185 41.0915C81.1297 41.0952 80.6466 41.1961 80.1972 41.3884C79.7478 41.5806 79.3411 41.8603 79.0008 42.2112L76.3913 44.824L73.7696 42.2024L76.3805 39.5915C79.2676 36.7045 83.9486 36.7045 86.8359 39.5915C89.7232 42.4784 89.7232 47.1599 86.8359 50.0472L84.2236 52.6579Z" fill="#6B45FE"/>
<path d="M35.2293 74.5093C34.7375 74.5092 34.2659 74.3138 33.9181 73.9661L27.045 67.0924H5.56249C2.4906 67.0924 0 64.6025 0 61.5299V42.9888C0 39.9162 2.4906 37.4263 5.56249 37.4263H38.9374C42.0093 37.4263 44.4999 39.9162 44.4999 42.9888V61.5299C44.4999 64.6025 42.0093 67.0924 38.9374 67.0924H37.083V72.6549C37.083 73.6787 36.2533 74.5093 35.2293 74.5093ZM5.56249 41.1344C4.53864 41.1344 3.70809 41.964 3.70809 42.9888V61.5299C3.70809 62.5538 4.53847 63.3843 5.56249 63.3843H27.8124C28.304 63.3843 28.776 63.5799 29.1236 63.9275L33.3749 68.1788V65.2387C33.3749 64.214 34.2053 63.3843 35.2293 63.3843H38.9374C39.9613 63.3843 40.7918 62.5539 40.7918 61.5299V42.9888C40.7918 41.964 39.9614 41.1344 38.9374 41.1344H5.56249Z" fill="#6B45FE"/>
<path d="M16.6875 46.6973H35.2294V50.4054H16.6875V46.6973Z" fill="#6B45FE"/>
<path d="M9.27051 54.1141H35.2292V57.8222H9.27051V54.1141ZM9.27051 46.6972H12.9793V50.4053H9.27051V46.6972ZM70.4579 17.0303H66.7498V13.3223C66.7498 12.2984 65.9194 11.4679 64.8954 11.4679H61.1873V7.75977H64.8954C67.968 7.75977 70.4579 10.2504 70.4579 13.3223V17.0303Z" fill="#6B45FE"/>
<path d="M53.7706 7.75977H57.4795V11.4679H53.7706V7.75977Z" fill="#6B45FE"/>
</svg>
