<svg width="13" height="24" viewBox="0 0 13 24" fill="none" xmlns="http://www.w3.org/2000/svg">
<path d="M6.80286 18.2967H6.75881C5.17949 18.2967 3.90038 17.2101 3.90038 15.8707C3.90038 15.1055 3.16945 14.4871 2.26885 14.4871C1.36825 14.4871 0.637329 15.1071 0.637329 15.8707C0.637329 18.1548 2.39448 20.1648 4.96413 20.837V21.9954C4.96413 22.7606 5.69505 23.3789 6.59565 23.3789C7.49625 23.3789 8.22718 22.759 8.22718 21.9954V20.9121C11.2324 20.2823 13.2099 17.8481 12.8362 15.2425C12.4626 12.637 9.85381 10.6743 6.75881 10.6743C5.17949 10.6743 3.90038 9.58767 3.90038 8.24819C3.90038 6.9087 5.17949 5.82211 6.75881 5.82211C8.33812 5.82211 9.61887 6.90871 9.61887 8.24655C9.61887 9.01174 10.3498 9.63009 11.2504 9.63009C12.151 9.63009 12.8819 9.01011 12.8819 8.24655C12.8819 5.85963 10.9584 3.77944 8.22881 3.20515V1.92766C8.22881 1.16248 7.49789 0.544128 6.59729 0.544128C5.69669 0.544128 4.96576 1.16411 4.96576 1.92766V3.28835C2.06818 4.04212 0.257184 6.48125 0.705853 9.02479C1.15452 11.5683 3.72907 13.4495 6.76044 13.4495C8.33975 13.4397 9.62866 14.5181 9.64171 15.8576C9.65476 17.1971 8.38217 18.287 6.80286 18.2967Z" fill="#9377FF"/>
</svg>
