<svg width="32" height="32" viewBox="0 0 32 32" fill="none" xmlns="http://www.w3.org/2000/svg">
<path d="M11.6445 18.7849C11.1394 18.7849 10.73 19.1944 10.73 19.6994V21.5284C10.73 22.0334 11.1394 22.4429 11.6445 22.4429C12.1495 22.4429 12.559 22.0334 12.559 21.5284V19.6994C12.559 19.1944 12.1495 18.7849 11.6445 18.7849ZM20.7895 22.4429C21.2945 22.4429 21.704 22.0334 21.704 21.5284V19.6994C21.704 19.1944 21.2945 18.7849 20.7895 18.7849C20.2844 18.7849 19.875 19.1944 19.875 19.6994V21.5284C19.875 22.0334 20.2844 22.4429 20.7895 22.4429ZM17.1925 6.89638H27.191C27.696 6.89638 28.1055 6.48693 28.1055 5.98188C28.1055 5.47684 27.696 5.06738 27.191 5.06738H17.1925C16.6874 5.06738 16.278 5.47684 16.278 5.98188C16.278 6.48693 16.6874 6.89638 17.1925 6.89638Z" fill="white"/>
<path d="M11.6445 18.7849C11.1394 18.7849 10.73 19.1944 10.73 19.6994V21.5284C10.73 22.0334 11.1394 22.4429 11.6445 22.4429C12.1495 22.4429 12.559 22.0334 12.559 21.5284V19.6994C12.559 19.1944 12.1495 18.7849 11.6445 18.7849ZM20.7895 22.4429C21.2945 22.4429 21.704 22.0334 21.704 21.5284V19.6994C21.704 19.1944 21.2945 18.7849 20.7895 18.7849C20.2844 18.7849 19.875 19.1944 19.875 19.6994V21.5284C19.875 22.0334 20.2844 22.4429 20.7895 22.4429ZM17.1925 6.89638H27.191C27.696 6.89638 28.1055 6.48693 28.1055 5.98188C28.1055 5.47684 27.696 5.06738 27.191 5.06738H17.1925C16.6874 5.06738 16.278 5.47684 16.278 5.98188C16.278 6.48693 16.6874 6.89638 17.1925 6.89638Z" fill="white"/>
<path d="M31.8246 11.1641V4.39677C31.8246 2.21166 30.0469 0.433929 27.8617 0.433929H16.5219C14.3368 0.433929 12.5591 2.21166 12.5591 4.39677V11.4689H11.3398C7.99714 11.4689 5.19377 13.8204 4.49594 16.9559H4.32859V11.3116C5.39301 10.9341 6.15759 9.91761 6.15759 8.7254C6.15759 7.21264 4.92686 5.9819 3.41409 5.9819C1.90132 5.9819 0.670586 7.21264 0.670586 8.7254C0.670586 9.91761 1.43517 10.9341 2.49959 11.3116V17.0925C1.40359 17.4523 0.609619 18.4846 0.609619 19.6994V23.3574C0.609619 24.8702 1.84035 26.1009 3.35312 26.1009H4.48265C5.15749 29.2669 7.9755 31.6489 11.3398 31.6489H21.0944C24.4587 31.6489 27.2767 29.2669 27.9516 26.1009H29.0811C30.5938 26.1009 31.8246 24.8702 31.8246 23.3574V19.6994C31.8246 18.1866 30.5938 16.9559 29.0811 16.9559H27.9379C27.7959 16.3172 27.5651 15.7015 27.2522 15.1269H27.8617C30.0469 15.1269 31.8246 13.3492 31.8246 11.1641ZM14.3881 4.39677C14.3881 3.22017 15.3453 2.26293 16.5219 2.26293H27.8617C29.0383 2.26293 29.9956 3.22017 29.9956 4.39677V11.1641C29.9956 12.3407 29.0383 13.2979 27.8617 13.2979H17.1316C16.9896 13.2979 16.8496 13.331 16.7226 13.3944L14.3881 14.5617V4.39677ZM3.41409 7.8109C3.91834 7.8109 4.32859 8.22115 4.32859 8.7254C4.32859 9.22966 3.91834 9.63991 3.41409 9.63991C2.90983 9.63991 2.49959 9.22966 2.49959 8.7254C2.49959 8.22115 2.90983 7.8109 3.41409 7.8109ZM2.43862 23.3574V19.6994C2.43862 19.1952 2.84887 18.7849 3.35312 18.7849H4.32859V24.2719H3.35312C2.84887 24.2719 2.43862 23.8617 2.43862 23.3574ZM29.9956 19.6994V23.3574C29.9956 23.8617 29.5853 24.2719 29.0811 24.2719H28.1056V18.7849H29.0811C29.5853 18.7849 29.9956 19.1952 29.9956 19.6994ZM26.2766 18.4801V24.6377C26.2766 27.4952 23.9519 29.8199 21.0944 29.8199H11.3398C8.48231 29.8199 6.15759 27.4952 6.15759 24.6377V18.4801C6.15759 15.6226 8.48231 13.2979 11.3398 13.2979H12.5591V16.0414C12.5591 16.7201 13.275 17.1632 13.8826 16.8593L17.3475 15.1269H25.044C25.8399 16.0629 26.2768 17.2515 26.2766 18.4801Z" fill="white"/>
<path d="M31.8246 11.1641V4.39677C31.8246 2.21166 30.0469 0.433929 27.8617 0.433929H16.5219C14.3368 0.433929 12.5591 2.21166 12.5591 4.39677V11.4689H11.3398C7.99714 11.4689 5.19377 13.8204 4.49594 16.9559H4.32859V11.3116C5.39301 10.9341 6.15759 9.91761 6.15759 8.7254C6.15759 7.21264 4.92686 5.9819 3.41409 5.9819C1.90132 5.9819 0.670586 7.21264 0.670586 8.7254C0.670586 9.91761 1.43517 10.9341 2.49959 11.3116V17.0925C1.40359 17.4523 0.609619 18.4846 0.609619 19.6994V23.3574C0.609619 24.8702 1.84035 26.1009 3.35312 26.1009H4.48265C5.15749 29.2669 7.9755 31.6489 11.3398 31.6489H21.0944C24.4587 31.6489 27.2767 29.2669 27.9516 26.1009H29.0811C30.5938 26.1009 31.8246 24.8702 31.8246 23.3574V19.6994C31.8246 18.1866 30.5938 16.9559 29.0811 16.9559H27.9379C27.7959 16.3172 27.5651 15.7015 27.2522 15.1269H27.8617C30.0469 15.1269 31.8246 13.3492 31.8246 11.1641ZM14.3881 4.39677C14.3881 3.22017 15.3453 2.26293 16.5219 2.26293H27.8617C29.0383 2.26293 29.9956 3.22017 29.9956 4.39677V11.1641C29.9956 12.3407 29.0383 13.2979 27.8617 13.2979H17.1316C16.9896 13.2979 16.8496 13.331 16.7226 13.3944L14.3881 14.5617V4.39677ZM3.41409 7.8109C3.91834 7.8109 4.32859 8.22115 4.32859 8.7254C4.32859 9.22966 3.91834 9.63991 3.41409 9.63991C2.90983 9.63991 2.49959 9.22966 2.49959 8.7254C2.49959 8.22115 2.90983 7.8109 3.41409 7.8109ZM2.43862 23.3574V19.6994C2.43862 19.1952 2.84887 18.7849 3.35312 18.7849H4.32859V24.2719H3.35312C2.84887 24.2719 2.43862 23.8617 2.43862 23.3574ZM29.9956 19.6994V23.3574C29.9956 23.8617 29.5853 24.2719 29.0811 24.2719H28.1056V18.7849H29.0811C29.5853 18.7849 29.9956 19.1952 29.9956 19.6994ZM26.2766 18.4801V24.6377C26.2766 27.4952 23.9519 29.8199 21.0944 29.8199H11.3398C8.48231 29.8199 6.15759 27.4952 6.15759 24.6377V18.4801C6.15759 15.6226 8.48231 13.2979 11.3398 13.2979H12.5591V16.0414C12.5591 16.7201 13.275 17.1632 13.8826 16.8593L17.3475 15.1269H25.044C25.8399 16.0629 26.2768 17.2515 26.2766 18.4801Z" fill="white"/>
<path d="M17.1925 10.5544H27.191C27.6961 10.5544 28.1055 10.145 28.1055 9.6399C28.1055 9.13486 27.6961 8.7254 27.191 8.7254H17.1925C16.6874 8.7254 16.278 9.13486 16.278 9.6399C16.278 10.145 16.6874 10.5544 17.1925 10.5544ZM13.4735 25.1864C13.4735 25.6915 13.883 26.1009 14.388 26.1009H18.046C18.5511 26.1009 18.9605 25.6915 18.9605 25.1864C18.9605 24.6814 18.5511 24.2719 18.046 24.2719H14.388C13.883 24.2719 13.4735 24.6814 13.4735 25.1864Z" fill="white"/>
<path d="M17.1925 10.5544H27.191C27.6961 10.5544 28.1055 10.145 28.1055 9.6399C28.1055 9.13486 27.6961 8.7254 27.191 8.7254H17.1925C16.6874 8.7254 16.278 9.13486 16.278 9.6399C16.278 10.145 16.6874 10.5544 17.1925 10.5544ZM13.4735 25.1864C13.4735 25.6915 13.883 26.1009 14.388 26.1009H18.046C18.5511 26.1009 18.9605 25.6915 18.9605 25.1864C18.9605 24.6814 18.5511 24.2719 18.046 24.2719H14.388C13.883 24.2719 13.4735 24.6814 13.4735 25.1864Z" fill="white"/>
</svg>
