<svg width="29" height="13" viewBox="0 0 29 13" fill="none" xmlns="http://www.w3.org/2000/svg">
<path d="M2.0238 3.56755H18.0747C18.5074 3.56755 18.9224 3.39566 19.2284 3.08969C19.5344 2.78372 19.7063 2.36874 19.7063 1.93603C19.7063 1.50332 19.5344 1.08834 19.2284 0.782368C18.9224 0.476398 18.5074 0.304504 18.0747 0.304504H2.0238C1.59109 0.304504 1.17611 0.476398 0.870136 0.782368C0.564166 1.08834 0.392273 1.50332 0.392273 1.93603C0.392273 2.36874 0.564166 2.78372 0.870136 3.08969C1.17611 3.39566 1.59109 3.56755 2.0238 3.56755ZM27.1574 8.89611H2.03196C1.59925 8.89611 1.18426 9.068 0.878295 9.37397C0.572325 9.67994 0.400431 10.0949 0.400431 10.5276C0.400431 10.9603 0.572325 11.3753 0.878295 11.6813C1.18426 11.9873 1.59925 12.1592 2.03196 12.1592H27.1574C27.5901 12.1592 28.0051 11.9873 28.3111 11.6813C28.6171 11.3753 28.7889 10.9603 28.7889 10.5276C28.7889 10.0949 28.6171 9.67994 28.3111 9.37397C28.0051 9.068 27.5901 8.89611 27.1574 8.89611Z" fill="#9377FF"/>
</svg>
