<svg width="14" height="14" viewBox="0 0 14 14" fill="none" xmlns="http://www.w3.org/2000/svg">
<path d="M12.3175 13.8045C11.905 13.8045 11.5093 13.6413 11.2167 13.3505L0.899331 3.03306C0.616118 2.73983 0.459407 2.3471 0.462949 1.93944C0.466492 1.53179 0.630009 1.14184 0.918274 0.853571C1.20654 0.565305 1.59649 0.401795 2.00415 0.398252C2.4118 0.39471 2.80453 0.551421 3.09777 0.834633L13.4152 11.152C13.6319 11.3695 13.7794 11.6462 13.8391 11.9473C13.8988 12.2485 13.8681 12.5605 13.7507 12.8442C13.6333 13.1279 13.4345 13.3705 13.1795 13.5413C12.9244 13.7122 12.6245 13.8038 12.3175 13.8045Z" fill="#7913E1"/>
</svg>
