<svg width="94" height="89" viewBox="0 0 94 89" fill="none" xmlns="http://www.w3.org/2000/svg">
<path d="M17.5635 18.7214H1.9519V15.0453H15.6118V2.18115H19.5152V16.8833C19.5152 17.8982 18.6413 18.7214 17.5635 18.7214Z" fill="#6B45FE"/>
<path d="M23.4179 38.9368H11.709C10.6315 38.9368 9.75732 38.1138 9.75732 37.0988V26.072C9.75732 25.0572 10.6313 24.2346 11.709 24.2346H23.4179C24.4955 24.2346 25.3697 25.057 25.3697 26.072V37.0988C25.3697 38.1136 24.4957 38.9368 23.4179 38.9368ZM13.6608 35.2614H21.4662V27.91H13.6608V35.2614ZM23.4179 79.3687H11.709C10.6315 79.3687 9.75732 78.5457 9.75732 77.5307V66.5039C9.75732 65.4891 10.6313 64.6658 11.709 64.6658H23.4179C24.4955 64.6658 25.3697 65.4889 25.3697 66.5039V77.5307C25.3697 78.5455 24.4957 79.3687 23.4179 79.3687ZM13.6608 75.6926H21.4662V68.3419H13.6608V75.6926ZM72.2052 79.3687C71.9032 79.3717 71.6045 79.3088 71.3325 79.185L59.6237 73.6716C59.2978 73.5182 59.024 73.2819 58.8333 72.9896C58.6426 72.6972 58.5426 72.3604 58.5446 72.0173V66.5039H62.4473V70.8812L72.2052 75.4759L81.9624 70.8812V66.5039H85.8651V72.0173C85.8673 72.3604 85.7673 72.6973 85.5766 72.9897C85.3859 73.2821 85.112 73.5183 84.7861 73.6716L73.0772 79.185C72.8054 79.3087 72.507 79.3716 72.2052 79.3687Z" fill="#6B45FE"/>
<path d="M81.9623 40.7749H74.1562C73.6388 40.7749 73.1428 40.5811 72.7769 40.2365L70.2534 37.8601L67.73 40.2365C67.3641 40.5811 66.8683 40.7749 66.3507 40.7749H62.4473V37.0989H65.5424L68.8734 33.9619C69.636 33.2445 70.8709 33.2445 71.6334 33.9619L74.9644 37.0989H81.9623V40.7749Z" fill="#6B45FE"/>
<path d="M74.1562 55.4771H70.2535C64.8672 55.4711 60.5027 51.3601 60.4963 46.2883V35.2615C60.5027 30.189 64.867 26.0782 70.2535 26.072H74.1562C79.5425 26.0781 83.9075 30.189 83.9141 35.2615V46.2883C83.9077 51.3601 79.5425 55.4711 74.1562 55.4771ZM70.2535 29.7481C67.0203 29.7481 64.399 32.216 64.399 35.2615V46.2883C64.399 49.3331 67.0203 51.8017 70.2535 51.8017H74.1562C77.39 51.8017 80.0106 49.3331 80.0106 46.2883V35.2615C80.0106 32.216 77.39 29.7481 74.1562 29.7481H70.2535ZM87.8168 88.5576H56.5928C53.3597 88.5576 50.7384 86.0889 50.7384 83.0441V70.1793C50.7485 63.0782 56.8587 57.3239 64.399 57.3151C64.7893 57.315 65.1706 57.4251 65.4937 57.631C65.8169 57.837 66.0671 58.1295 66.2121 58.4707L72.2052 72.5833L78.1983 58.4707C78.343 58.1295 78.593 57.8369 78.9161 57.6309C79.2392 57.4249 79.6205 57.3149 80.0106 57.3151C87.551 57.3237 93.6612 63.0784 93.6712 70.1793V83.0441C93.6712 86.0889 91.0499 88.5576 87.8168 88.5576ZM63.111 61.0692C58.2659 61.6836 54.6477 65.5751 54.6419 70.1793V83.0441C54.6419 84.059 55.5151 84.8822 56.5928 84.8822H87.8168C88.8944 84.8822 89.7685 84.0591 89.7685 83.0441V70.1793C89.7621 65.5751 86.1444 61.6836 81.2992 61.0692L74.0177 78.2125C73.8731 78.554 73.6231 78.8469 73.3 79.0532C72.9768 79.2595 72.5954 79.3698 72.205 79.3698C71.8146 79.3698 71.4332 79.2595 71.11 79.0532C70.7869 78.8469 70.5369 78.554 70.3923 78.2125L63.111 61.0692Z" fill="#6B45FE"/>
<path d="M70.2534 77.5308H74.1561V86.7195H70.2534V77.5308Z" fill="#6B45FE"/>
<path d="M46.8357 88.5576H5.85457C2.62145 88.5576 0.00012207 86.0889 0.00012207 83.0442V16.8832C0.00012207 16.396 0.205942 15.9282 0.571845 15.5836L16.1835 0.881436C16.5494 0.536848 17.0461 0.343018 17.5635 0.343018H60.4963C63.7294 0.343018 66.3507 2.81165 66.3507 5.85643V22.3967H62.4473V5.85643C62.4473 4.84161 61.5741 4.01839 60.4963 4.01839H18.371L3.90284 17.6438V83.0442C3.90284 84.059 4.7768 84.8822 5.85457 84.8822H46.8357V88.5576Z" fill="#6B45FE"/>
<path d="M23.4179 59.1525H11.709C10.6314 59.1525 9.75726 58.3301 9.75726 57.3151V46.2883C9.75726 45.2735 10.6312 44.4503 11.709 44.4503H23.4179C24.4955 44.4503 25.3696 45.2733 25.3696 46.2883V57.3151C25.3696 58.3299 24.4956 59.1525 23.4179 59.1525ZM13.6607 55.4771H21.4662V48.1257H13.6607V55.4771ZM31.224 26.072H56.5928V29.7481H31.224V26.072ZM31.224 33.4235H56.5928V37.0988H31.224V33.4235Z" fill="#6B45FE"/>
<path d="M31.2241 46.2883H56.5929V49.9637H31.2241V46.2883Z" fill="#6B45FE"/>
<path d="M31.2241 53.6392H52.6902V57.3152H31.2241V53.6392ZM31.2241 66.504H46.8357V70.1794H31.2241V66.504ZM31.2241 73.8555H46.8357V77.5308H31.2241V73.8555Z" fill="#6B45FE"/>
</svg>
