<svg width="60" height="71" viewBox="0 0 60 71" fill="none" xmlns="http://www.w3.org/2000/svg">
<path d="M58.7346 15.9366L43.8959 1.09949C43.751 0.939347 43.572 0.813822 43.372 0.732206C43.1721 0.65059 42.9564 0.614971 42.7408 0.627984H19.3464C17.6155 0.627984 15.9556 1.31555 14.7317 2.53943C13.5078 3.76331 12.8203 5.42325 12.8203 7.15408V13.1091H6.86521C5.13438 13.1091 3.47444 13.7967 2.25056 15.0206C1.02668 16.2445 0.339111 17.9044 0.339111 19.6352V64.2574C0.339111 65.9883 1.02668 67.6482 2.25056 68.8721C3.47444 70.096 5.13438 70.7835 6.86521 70.7835H40.2038C41.9346 70.7835 43.5945 70.096 44.8184 68.8721C46.0423 67.6482 46.7299 65.9883 46.7299 64.2574V58.3024H52.6849C54.4158 58.3024 56.0757 57.6148 57.2996 56.3909C58.5235 55.167 59.211 53.5071 59.211 51.7763V17.0901C59.2156 16.8753 59.1756 16.662 59.0936 16.4634C59.0116 16.2649 58.8894 16.0855 58.7346 15.9366ZM53.641 15.4585H46.8212C46.1722 15.4585 45.5497 15.2007 45.0907 14.7417C44.6318 14.2828 44.374 13.6603 44.374 13.0113V6.19148L53.641 15.4585ZM43.4668 64.2574C43.4668 65.1228 43.123 65.9528 42.5111 66.5648C41.8992 67.1767 41.0692 67.5205 40.2038 67.5205H6.86521C5.99979 67.5205 5.16982 67.1767 4.55788 66.5648C3.94594 65.9528 3.60216 65.1228 3.60216 64.2574V19.6287C3.60216 18.7633 3.94594 17.9333 4.55788 17.3214C5.16982 16.7094 5.99979 16.3657 6.86521 16.3657H12.8203V51.7828C12.8203 53.5136 13.5078 55.1736 14.7317 56.3974C15.9556 57.6213 17.6155 58.3089 19.3464 58.3089H43.4668V64.2574ZM52.6849 55.0393H19.3464C18.481 55.0393 17.651 54.6955 17.039 54.0836C16.4271 53.4717 16.0833 52.6417 16.0833 51.7763V7.15408C16.0833 6.28867 16.4271 5.4587 17.039 4.84676C17.651 4.23482 18.481 3.89103 19.3464 3.89103H41.1109V13.0113C41.1109 14.5257 41.7125 15.9782 42.7834 17.0491C43.8543 18.12 45.3068 18.7216 46.8212 18.7216H55.9496V51.7828C55.9496 52.2114 55.8652 52.6359 55.7011 53.0319C55.537 53.4279 55.2965 53.7877 54.9933 54.0907C54.6901 54.3937 54.3302 54.634 53.9342 54.7979C53.5381 54.9618 53.1136 55.0461 52.6849 55.0458V55.0393Z" fill="#9377FF"/>
</svg>
