<svg width="55" height="68" viewBox="0 0 55 68" fill="none" xmlns="http://www.w3.org/2000/svg">
<path d="M54.4148 18.3918L36.8486 0.825578C36.7019 0.673846 36.5256 0.553865 36.3307 0.473076C36.1358 0.392286 35.9263 0.352412 35.7153 0.355927H7.02331C5.32285 0.355927 3.69203 1.03143 2.48961 2.23385C1.2872 3.43626 0.611694 5.06708 0.611694 6.76754V61.5869C0.611694 63.2874 1.2872 64.9182 2.48961 66.1206C3.69203 67.323 5.32285 67.9985 7.02331 67.9985H48.4728C50.1733 67.9985 51.8041 67.323 53.0065 66.1206C54.2089 64.9182 54.8844 63.2874 54.8844 61.5869V19.5251C54.8831 19.1002 54.7144 18.693 54.4148 18.3918ZM49.4121 17.9222H39.7226C39.0849 17.9222 38.4733 17.6688 38.0224 17.2179C37.5715 16.767 37.3182 16.1555 37.3182 15.5178V5.82824L49.4121 17.9222ZM48.4728 64.7927H7.02812C6.17789 64.7927 5.36248 64.4549 4.76127 63.8537C4.16007 63.2525 3.82231 62.4371 3.82231 61.5869V6.76754C3.82231 5.91731 4.16007 5.1019 4.76127 4.5007C5.36248 3.89949 6.17789 3.56174 7.02812 3.56174H34.1172V15.5178C34.1172 17.0057 34.7083 18.4327 35.7604 19.4848C36.8125 20.5369 38.2395 21.128 39.7274 21.128H51.6834V61.5869C51.6834 62.0083 51.6004 62.4255 51.439 62.8148C51.2776 63.2041 51.041 63.5577 50.7428 63.8554C50.4446 64.1532 50.0906 64.3892 49.7011 64.55C49.3116 64.7109 48.8942 64.7933 48.4728 64.7927Z" fill="#9377FF"/>
</svg>
