<svg width="19" height="15" viewBox="0 0 19 15" fill="none" xmlns="http://www.w3.org/2000/svg">
<path d="M5.27632 14.7738C5.13772 14.7739 5.00045 14.7467 4.8724 14.6936C4.74436 14.6405 4.62807 14.5627 4.53021 14.4645L0.309354 10.2434C-0.102955 9.83111 -0.102955 9.16351 0.309354 8.7512C0.721664 8.33889 1.38926 8.33889 1.80157 8.7512L5.27657 12.2262L17.1935 0.309232C17.6059 -0.103077 18.2735 -0.103077 18.6858 0.309232C19.0981 0.721542 19.0981 1.38914 18.6858 1.80145L6.02268 14.4645C5.92476 14.5627 5.80843 14.6405 5.68034 14.6936C5.55226 14.7467 5.41496 14.7739 5.27632 14.7738Z" fill="#40BEA7"/>
</svg>
