<svg width="35" height="30" viewBox="0 0 35 30" fill="none" xmlns="http://www.w3.org/2000/svg">
<path fill-rule="evenodd" clip-rule="evenodd" d="M5.65756 24.3686V28.5267C5.65756 28.9299 5.90539 29.2949 6.28503 29.4578C6.66467 29.6207 7.11286 29.551 7.42395 29.2801L10.4927 26.5836C12.0539 25.2133 14.088 24.454 16.1979 24.4541H27.8033C29.4801 24.4541 31.0935 23.8106 32.2799 22.6652C33.4663 21.5198 34.1307 19.966 34.1307 18.3462V7.6545C34.1307 7.09248 33.6561 6.63634 33.0761 6.63634C32.4961 6.63634 32.0216 7.09248 32.0216 7.6545V18.3462C32.0219 18.881 31.913 19.4107 31.7012 19.9049C31.4893 20.3991 31.1786 20.8482 30.7868 21.2263C30.395 21.6045 29.9298 21.9044 29.4179 22.1088C28.906 22.3132 28.3573 22.4182 27.8033 22.4178H16.1979C13.5636 22.4185 11.0241 23.3664 9.07434 25.0767L7.76668 26.2257V23.4359C7.76668 22.8734 7.29213 22.4178 6.71212 22.4178C6.15813 22.4182 5.60947 22.3132 5.09754 22.1088C4.58561 21.9044 4.12045 21.6045 3.72867 21.2263C3.33689 20.8482 3.02617 20.3991 2.81429 19.9049C2.60242 19.4107 2.49354 18.881 2.49389 18.3462V6.12625C2.49354 5.59138 2.60242 5.06169 2.81429 4.56748C3.02617 4.07327 3.33689 3.62424 3.72867 3.24608C4.12045 2.86792 4.58561 2.56804 5.09754 2.3636C5.60947 2.15916 6.15813 2.05417 6.71212 2.05464H26.2215C26.8015 2.05464 27.276 1.59851 27.276 1.03648C27.276 0.474462 26.8015 0.0183277 26.2215 0.0183277H6.71212C5.03537 0.0183277 3.4219 0.661802 2.23552 1.80723C1.04914 2.95265 0.384766 4.50636 0.384766 6.12625V18.3462C0.384766 19.966 1.04914 21.5198 2.23552 22.6652C3.16599 23.5614 4.36171 24.1566 5.65756 24.3686ZM24.5869 3.77634C24.5187 3.57162 24.3849 3.39309 24.2049 3.26644C24.0248 3.13979 23.8078 3.07156 23.5851 3.07156C23.3623 3.07156 23.1453 3.13979 22.9653 3.26644C22.7853 3.39309 22.6515 3.57162 22.5833 3.77634L21.1965 7.89326L16.9308 9.23162C16.4984 9.36806 16.2032 9.75903 16.2032 10.1999C16.2032 10.6408 16.4984 11.0317 16.9308 11.1682L21.1965 12.5065L22.5833 16.6234C22.6515 16.8282 22.7853 17.0067 22.9653 17.1333C23.1453 17.26 23.3623 17.3282 23.5851 17.3282C23.8078 17.3282 24.0248 17.26 24.2049 17.1333C24.3849 17.0067 24.5187 16.8282 24.5869 16.6234L25.9737 12.5065L30.2394 11.1682C30.6717 11.0317 30.967 10.6408 30.967 10.1999C30.967 9.75903 30.6717 9.36806 30.2394 9.23162L25.9737 7.89326L24.5869 3.77634ZM7.76668 17.327H20.4214C21.0014 17.327 21.476 16.8708 21.476 16.3088C21.476 15.7468 21.0014 15.2907 20.4214 15.2907H7.76668C7.18668 15.2907 6.71212 15.7468 6.71212 16.3088C6.71212 16.8708 7.18668 17.327 7.76668 17.327ZM7.76668 13.2544H15.1486C15.7286 13.2544 16.2032 12.7982 16.2032 12.2362C16.2032 11.6742 15.7286 11.218 15.1486 11.218H7.76668C7.18668 11.218 6.71212 11.6742 6.71212 12.2362C6.71212 12.7982 7.18668 13.2544 7.76668 13.2544ZM23.5851 7.38367L24.1335 9.01577C24.2389 9.3258 24.492 9.56863 24.8136 9.66943L26.5009 10.1999L24.8136 10.7304C24.492 10.8311 24.2389 11.074 24.1335 11.384L23.5851 13.0161L23.0367 11.384C22.9846 11.2311 22.8958 11.0922 22.7776 10.9786C22.6594 10.8651 22.5151 10.78 22.3565 10.7304L20.6692 10.1999L22.3565 9.66943C22.5151 9.61979 22.6594 9.53473 22.7776 9.42115C22.8958 9.30758 22.9846 9.16869 23.0367 9.01577L23.5851 7.38367ZM7.76668 9.18173H15.1486C15.7286 9.18173 16.2032 8.7256 16.2032 8.16358C16.2032 7.60156 15.7286 7.14542 15.1486 7.14542H7.76668C7.18668 7.14542 6.71212 7.60156 6.71212 8.16358C6.71212 8.7256 7.18668 9.18173 7.76668 9.18173ZM31.4416 0.721874C31.3733 0.517156 31.2395 0.338624 31.0595 0.211975C30.8795 0.0853252 30.6625 0.0170898 30.4397 0.0170898C30.217 0.0170898 30 0.0853252 29.8199 0.211975C29.6399 0.338624 29.5061 0.517156 29.4379 0.721874L28.9581 2.14933L27.4764 2.61361C27.044 2.75004 26.7488 3.14101 26.7488 3.58187C26.7488 4.02274 27.044 4.41371 27.4764 4.55014L28.9581 5.01442L29.4379 6.44188C29.5061 6.64659 29.6399 6.82513 29.8199 6.95177C30 7.07842 30.217 7.14666 30.4397 7.14666C30.6625 7.14666 30.8795 7.07842 31.0595 6.95177C31.2395 6.82513 31.3733 6.64659 31.4416 6.44188L31.9214 5.01442L33.403 4.55014C33.8354 4.41371 34.1307 4.02274 34.1307 3.58187C34.1307 3.14101 33.8354 2.75004 33.403 2.61361L31.9214 2.14933L31.4416 0.721874Z" fill="white"/>
</svg>
