<svg width="18" height="9" viewBox="0 0 18 9" fill="none" xmlns="http://www.w3.org/2000/svg">
<path d="M4.68896 1.46205C4.23345 1.07 3.62756 0.873978 2.87185 0.873978H0.678576C0.494857 0.873978 0.34648 0.923482 0.233513 1.02235C0.120407 1.12136 0.0640259 1.23791 0.0640259 1.37198V8.11078C0.0640259 8.27333 0.14516 8.39867 0.307701 8.48695C0.470036 8.57538 0.664343 8.61945 0.890485 8.61945C1.11642 8.61945 1.31066 8.57538 1.4732 8.48695C1.6356 8.39867 1.71687 8.27339 1.71687 8.11078V5.82221H2.76583C3.54987 5.82221 4.1803 5.62275 4.65713 5.22361C5.13396 4.82461 5.37234 4.20477 5.37234 3.36408V3.31107C5.37241 2.47051 5.14455 1.85411 4.68896 1.46205ZM3.71949 3.49114C3.71949 4.19762 3.40156 4.55069 2.76583 4.55069H1.71694V2.31505H2.7659C3.40163 2.31505 3.71956 2.6684 3.71956 3.3746L3.71949 3.49114ZM10.5853 1.47794C10.112 1.0753 9.47974 0.873978 8.68869 0.873978H6.81328C6.60137 0.873978 6.42817 0.923481 6.29409 1.02229C6.15981 1.1213 6.09277 1.23784 6.09277 1.37192V8.1213C6.09277 8.25566 6.15988 8.37213 6.29409 8.471C6.42824 8.57001 6.60137 8.61931 6.81328 8.61931H8.68869C9.47967 8.61931 10.112 8.41799 10.5853 8.01535C11.0584 7.61271 11.2952 6.98063 11.2952 6.11876V3.37453C11.2951 2.51287 11.0583 1.88065 10.5853 1.47794ZM9.64221 6.11883C9.64221 6.82523 9.32435 7.17844 8.68862 7.17844H7.74562V2.31505H8.68862C9.32435 2.31505 9.64221 2.6684 9.64221 3.37467V6.11883ZM17.112 1.08595C17.0272 0.944727 16.9036 0.874114 16.7412 0.874114H13.0645C12.8667 0.874114 12.6972 0.918325 12.556 1.00661C12.4146 1.09503 12.3441 1.22031 12.3441 1.38278V8.11092C12.3441 8.27346 12.4252 8.39881 12.5878 8.48709C12.7501 8.57551 12.9444 8.61959 13.1705 8.61959C13.3965 8.61959 13.5907 8.57551 13.7533 8.48709C13.9157 8.39881 13.9969 8.27353 13.9969 8.11092V5.37721H15.5968C15.7592 5.37721 15.8829 5.31361 15.9677 5.18655C16.0525 5.05935 16.0949 4.91469 16.0949 4.75208C16.0949 4.57564 16.0507 4.42362 15.9624 4.29642C15.874 4.16922 15.7522 4.10576 15.5968 4.10576H13.9969V2.31512H16.7412C16.8964 2.31512 17.0183 2.24458 17.1067 2.10321C17.195 1.96192 17.2392 1.789 17.2392 1.58403C17.2392 1.3933 17.1967 1.22732 17.112 1.08595Z" fill="white"/>
</svg>
