<svg width="28" height="36" viewBox="0 0 28 36" fill="none" xmlns="http://www.w3.org/2000/svg">
<path d="M24.1184 0.471771H4.23574C2.36959 0.471771 0.851457 1.98998 0.851457 3.85606C0.851457 29.0234 0.82403 27.5039 0.909906 27.7617C0.965069 27.9268 1.05749 28.077 1.18001 28.2007C1.25038 28.2714 8.10257 35.1315 8.20227 35.2081C8.648 35.5514 7.96283 35.4427 24.1184 35.4427C25.9846 35.4427 27.5027 33.9245 27.5027 32.0584V3.85606C27.5027 1.98998 25.9846 0.471771 24.1184 0.471771ZM7.76104 31.5912L4.70299 28.5331H7.76104V31.5912ZM25.2465 32.0584C25.2465 32.6804 24.7404 33.1865 24.1184 33.1865H10.0172V27.405C10.0172 26.7821 9.5122 26.277 8.88914 26.277H3.10765V3.85606C3.10765 3.23405 3.61374 2.72796 4.23574 2.72796H24.1184C24.7404 2.72796 25.2465 3.23405 25.2465 3.85606V32.0584ZM21.6507 23.2452C21.6507 23.8682 21.1457 24.3733 20.5226 24.3733H7.76104C7.13798 24.3733 6.63295 23.8682 6.63295 23.2452C6.63295 22.6222 7.13798 22.1171 7.76104 22.1171H20.5226C21.1457 22.1171 21.6507 22.6222 21.6507 23.2452ZM21.6507 29.0267C21.6507 29.6497 21.1457 30.1548 20.5226 30.1548H13.2605C12.6374 30.1548 12.1324 29.6497 12.1324 29.0267C12.1324 28.4037 12.6374 27.8986 13.2605 27.8986H20.5226C21.1457 27.8986 21.6507 28.4037 21.6507 29.0267ZM14.1308 12.3222C16.2244 12.3222 17.9277 10.6189 17.9277 8.52531C17.9277 6.43171 16.2245 4.72843 14.1308 4.72843C12.0372 4.72843 10.3339 6.43171 10.3339 8.52531C10.3339 10.6189 12.0372 12.3222 14.1308 12.3222ZM14.1308 6.98462C14.9804 6.98462 15.6715 7.67579 15.6715 8.52531C15.6715 9.37484 14.9804 10.066 14.1308 10.066C13.2813 10.066 12.5901 9.37484 12.5901 8.52531C12.5901 7.67579 13.2813 6.98462 14.1308 6.98462ZM8.41851 17.848V16.3013C8.41851 15.3258 8.99405 14.4385 9.88482 14.0407L11.674 13.2418C11.974 13.1078 11.7639 13.1438 16.1022 13.1438C16.4193 13.1438 16.4085 13.1732 18.3512 14.0406C19.242 14.4384 19.8176 15.3258 19.8176 16.3012V17.848C19.8176 18.471 19.3125 18.9761 18.6895 18.9761C18.0664 18.9761 17.5614 18.471 17.5614 17.848V16.3012C17.5613 16.2588 17.549 16.2174 17.526 16.1818C17.5029 16.1462 17.47 16.1181 17.4314 16.1008L15.8617 15.4H12.3743L10.8046 16.1008C10.766 16.1181 10.7331 16.1463 10.71 16.1818C10.687 16.2174 10.6747 16.2588 10.6746 16.3012V17.848C10.6746 18.471 10.1696 18.9761 9.54653 18.9761C8.92347 18.9761 8.41851 18.471 8.41851 17.848Z" fill="white"/>
</svg>
