<svg width="11" height="10" viewBox="0 0 11 10" fill="none" xmlns="http://www.w3.org/2000/svg">
<path d="M1.91715 8.25053V7.01436H4.87021V8.25053C4.87021 8.73126 5.24793 9.10898 5.72866 9.10898C6.20939 9.10898 6.58711 8.73126 6.58711 8.25053V3.58057C6.58711 1.82934 5.16209 0.387146 3.39368 0.387146C1.62528 0.387146 0.200256 1.81217 0.200256 3.58057V8.25053C0.200256 8.73126 0.577973 9.10898 1.0587 9.10898C1.53944 9.10898 1.91715 8.73126 1.91715 8.25053ZM3.41085 2.12121C4.21779 2.12121 4.88738 2.77363 4.88738 3.59774V5.31464H1.93432V3.59774C1.93432 2.7908 2.58674 2.12121 3.41085 2.12121ZM9.47149 9.10898C9.95223 9.10898 10.3299 8.73126 10.3299 8.25053V1.24559C10.3299 0.764863 9.95223 0.387146 9.47149 0.387146C8.99076 0.387146 8.61305 0.764863 8.61305 1.24559V8.25053C8.61305 8.73126 8.99076 9.10898 9.47149 9.10898Z" fill="white"/>
</svg>
